<?xml version="1.0" encoding="UTF-8" standalone="no" ?>
<!DOCTYPE svg PUBLIC "-//W3C//DTD SVG 1.1//EN" "http://www.w3.org/Graphics/SVG/1.1/DTD/svg11.dtd">
<svg xmlns="http://www.w3.org/2000/svg" xmlns:xlink="http://www.w3.org/1999/xlink" version="1.1" width="1080" height="1080" viewBox="0 0 1080 1080" xml:space="preserve">
<desc>Created with Fabric.js 5.2.4</desc>
<defs>
</defs>
<g transform="matrix(1 0 0 1 540 540)" id="fae1936a-4a5a-41d4-b738-ddfa65962111"  >
<rect style="stroke: none; stroke-width: 1; stroke-dasharray: none; stroke-linecap: butt; stroke-dashoffset: 0; stroke-linejoin: miter; stroke-miterlimit: 4; fill: rgb(255,255,255); fill-rule: nonzero; opacity: 1; visibility: hidden;" vector-effect="non-scaling-stroke"  x="-540" y="-540" rx="0" ry="0" width="1080" height="1080" />
</g>
<g transform="matrix(1 0 0 1 540 540)" id="e9cdb6bb-e88c-4b89-a679-624ad272aa05"  >
</g>
<g transform="matrix(1 0 0 1 540 540)"  >
<g style="" vector-effect="non-scaling-stroke"   >
		<g transform="matrix(1 0 0 1 0 47.46)" id="path3046"  >
<path style="stroke: rgb(0,0,0); stroke-width: 10; stroke-dasharray: none; stroke-linecap: butt; stroke-dashoffset: 0; stroke-linejoin: miter; stroke-miterlimit: 4; fill: rgb(0,0,0); fill-opacity: 0.08; fill-rule: nonzero; opacity: 1;" vector-effect="non-scaling-stroke"  transform=" translate(-374.84, -610.44)" d="M 301.99 286.24 L 300.7457 298.556 L 244.8337 851.9559999999999 L 113.47369999999998 853.3428999999999 L 116.27089999999998 934.8308999999999 L 633.3909 934.8308999999999 L 636.2114 850.6469 L 521.9814 850.6469 L 439.3784 297.4769 L 437.6731 286.0569 z" stroke-linecap="round" />
</g>
		<g transform="matrix(1 0 0 1 6.56 137.84)" id="path3816"  >
<path style="stroke: rgb(0,0,0); stroke-width: 10; stroke-dasharray: none; stroke-linecap: butt; stroke-dashoffset: 0; stroke-linejoin: miter; stroke-miterlimit: 4; fill: rgb(0,0,0); fill-opacity: 0.08; fill-rule: nonzero; opacity: 1;" vector-effect="non-scaling-stroke"  transform=" translate(-381.4, -700.82)" d="M 257.12 702.25 L 505.69 699.3929" stroke-linecap="round" />
</g>
		<g transform="matrix(1 0 0 1 3.7 -17.87)" id="path3818"  >
<path style="stroke: rgb(0,0,0); stroke-width: 10; stroke-dasharray: none; stroke-linecap: butt; stroke-dashoffset: 0; stroke-linejoin: miter; stroke-miterlimit: 4; fill: rgb(0,0,0); fill-opacity: 0.08; fill-rule: nonzero; opacity: 1;" vector-effect="non-scaling-stroke"  transform=" translate(-378.54, -545.11)" d="M 274.26 545.11 L 482.83 545.11" stroke-linecap="round" />
</g>
		<g transform="matrix(1 0 0 1 0.85 -162.16)" id="path3820"  >
<path style="stroke: rgb(0,0,0); stroke-width: 10; stroke-dasharray: none; stroke-linecap: butt; stroke-dashoffset: 0; stroke-linejoin: miter; stroke-miterlimit: 4; fill: rgb(0,0,0); fill-opacity: 0.08; fill-rule: nonzero; opacity: 1;" vector-effect="non-scaling-stroke"  transform=" translate(-375.69, -400.83)" d="M 294.26 399.4 L 457.12 402.2571" stroke-linecap="round" />
</g>
		<g transform="matrix(1 0 0 1 -0.13 -35.37)" id="path3822"  >
<path style="stroke: rgb(0,0,0); stroke-width: 10; stroke-dasharray: none; stroke-linecap: butt; stroke-dashoffset: 0; stroke-linejoin: miter; stroke-miterlimit: 4; fill: rgb(0,0,0); fill-opacity: 0.08; fill-rule: nonzero; opacity: 1;" vector-effect="non-scaling-stroke"  transform=" translate(-374.71, -527.62)" d="M 379.24 859.43 L 373.0418 457.24999999999994 L 370.18350000000004 195.79999999999995" stroke-linecap="round" />
</g>
		<g transform="matrix(1 0 0 1 6.56 70.34)" id="path3824"  >
<path style="stroke: rgb(0,0,0); stroke-width: 9.684; stroke-dasharray: none; stroke-linecap: butt; stroke-dashoffset: 0; stroke-linejoin: miter; stroke-miterlimit: 4; fill: rgb(0,0,0); fill-opacity: 0.08; fill-rule: nonzero; opacity: 1;" vector-effect="non-scaling-stroke"  transform=" translate(-381.41, -633.33)" d="M 448.55 417.79 L 451.4072 409.396 L 274.80719999999997 547.7660000000001 L 497.12719999999996 700.046 L 242.83719999999997 857.2560000000001 L 519.9771999999999 856.54172" stroke-linecap="round" />
</g>
		<g transform="matrix(1 0 0 1 17.14 6.92)" id="path3826"  >
<path style="stroke: rgb(0,0,0); stroke-width: 9.7758; stroke-dasharray: none; stroke-linecap: butt; stroke-dashoffset: 0; stroke-linejoin: miter; stroke-miterlimit: 4; fill: rgb(0,0,0); fill-opacity: 0.08; fill-rule: nonzero; opacity: 1;" vector-effect="non-scaling-stroke"  transform=" translate(-391.98, -569.9)" d="M 523.41 860.24 L 260.54999999999995 702.13 L 473.2099999999999 543.09 L 291.9799999999999 401.40000000000003 L 372.3039999999999 279.56000000000006 L 456.9179999999999 406.4800000000001" stroke-linecap="round" />
</g>
		<g transform="matrix(1 0 0 1 -0.43 334.9)" id="rect3837"  >
<rect style="stroke: rgb(0,0,0); stroke-width: 9.1272; stroke-dasharray: none; stroke-linecap: butt; stroke-dashoffset: 0; stroke-linejoin: miter; stroke-miterlimit: 4; fill: rgb(0,0,0); fill-opacity: 0.08; fill-rule: nonzero; opacity: 1;" vector-effect="non-scaling-stroke"  x="-260.185" y="-38.8345" rx="0" ry="0" width="520.37" height="77.669" />
</g>
		<g transform="matrix(1 0 0 1 -6.47 -276.3)" id="path3853"  >
<path style="stroke: rgb(0,0,0); stroke-width: 10; stroke-dasharray: none; stroke-linecap: butt; stroke-dashoffset: 0; stroke-linejoin: miter; stroke-miterlimit: 4; fill: rgb(0,0,0); fill-opacity: 0.08; fill-rule: nonzero; opacity: 1;" vector-effect="non-scaling-stroke"  transform=" translate(-368.37, -286.68)" d="M 300.59 287.08 L 436.15 286.28145" stroke-linecap="round" />
</g>
		<g transform="matrix(1 0 0 1 -6.37 -328.04)" id="path3046-5"  >
<path style="stroke: rgb(0,0,0); stroke-width: 10; stroke-dasharray: none; stroke-linecap: butt; stroke-dashoffset: 0; stroke-linejoin: miter; stroke-miterlimit: 4; fill: rgb(0,0,0); fill-opacity: 0.08; fill-rule: nonzero; opacity: 1;" vector-effect="non-scaling-stroke"  transform=" translate(-368.47, -234.95)" d="M 476.14 279.48 L 476.03659999999996 219.887 L 415.3916 219.887 L 389.36359999999996 189.686 L 353.04659999999996 189.9899 L 326.9496 219.8869 L 261.53459999999995 219.8869 L 260.79999 279.7369 C 338.36699 280.865 403.07998999999995 279.63466999999997 476.13999 279.48009 z" stroke-linecap="round" />
</g>
</g>
</g>
</svg>